<?xml version="1.0" encoding="UTF-8"?>
<svg id="Layer_1" xmlns="http://www.w3.org/2000/svg" version="1.1" viewBox="0 0 487.37 188.54">
  <!-- Generator: Adobe Illustrator 29.2.1, SVG Export Plug-In . SVG Version: 2.1.0 Build 116)  -->
  <defs>
    <style>
      .st0 {
        fill: #fff;
      }
    </style>
  </defs>
  <path class="st0" d="M42.94,186.41c3.84-1.42,7.16-3.29,9.96-5.6v-23.85h-25.02v10.99h8.85v5.17c-.69.39-1.48.69-2.36.88-.89.2-2.07.29-3.54.29-1.82,0-3.48-.29-4.98-.88-1.5-.59-2.79-1.43-3.87-2.51-1.08-1.08-1.93-2.38-2.55-3.91-.62-1.52-.92-3.2-.92-5.02v-.15c0-1.77.28-3.4.85-4.87.56-1.48,1.37-2.75,2.4-3.84,1.03-1.08,2.26-1.93,3.69-2.55,1.43-.61,2.98-.92,4.65-.92,2.16,0,4.18.39,6.05,1.18,1.87.79,3.66,1.89,5.39,3.32l9.67-11.66c-2.8-2.46-5.99-4.38-9.56-5.75-3.57-1.38-7.59-2.07-12.06-2.07-4.08,0-7.86.68-11.33,2.03s-6.48,3.23-9.04,5.64c-2.56,2.41-4.55,5.26-5.98,8.56-1.43,3.3-2.14,6.86-2.14,10.7v.15c0,3.98.75,7.62,2.25,10.92,1.5,3.3,3.57,6.12,6.2,8.49,2.63,2.36,5.71,4.18,9.22,5.46,3.52,1.28,7.29,1.92,11.33,1.92,4.72,0,9-.71,12.84-2.13h0ZM74.3,187.44h17.27v-18.52l19.48-33.13h-19.11l-8.93,16.97-8.85-16.97h-19.33l19.48,33.35v18.3h0ZM113.85,187.44h16.82v-25.6l11.92,18.37h.29l11.92-18.37v25.6h17.19v-51.65h-18.01l-11.07,18.15-11.07-18.15h-18v51.65h0ZM178.93,187.44h17.12v-23.83l19.19,23.83h15.35v-51.65h-17.12v22.8l-18.37-22.8h-16.16v51.65h0ZM259.22,168.25l4.72-12.54,4.72,12.54h-9.45ZM233.76,187.44h18.45l2.66-6.94h18.08l2.73,6.94h18.74l-21.77-52.02h-17.12l-21.77,52.02h0ZM329.21,187.18c2.83-.81,5.23-1.97,7.2-3.47,1.97-1.5,3.49-3.33,4.58-5.5,1.08-2.16,1.62-4.6,1.62-7.31v-.15c0-2.61-.53-4.82-1.59-6.64-1.06-1.82-2.56-3.38-4.5-4.69-1.94-1.3-4.27-2.37-6.97-3.21-2.71-.84-5.71-1.55-9-2.14-1.38-.24-2.51-.49-3.39-.74-.88-.25-1.59-.5-2.1-.78-.52-.27-.87-.55-1.07-.85-.2-.29-.29-.61-.29-.96v-.15c0-.64.31-1.15.92-1.55.61-.39,1.56-.59,2.84-.59,2.41,0,4.98.41,7.71,1.22,2.73.81,5.32,2.1,7.79,3.87l8.41-11.66c-3-2.36-6.38-4.13-10.15-5.31-3.76-1.18-8.15-1.77-13.17-1.77-3.54,0-6.68.44-9.41,1.33-2.73.89-5.02,2.12-6.86,3.69-1.85,1.57-3.25,3.42-4.21,5.53-.96,2.12-1.44,4.4-1.44,6.86v.15c0,2.76.59,5.05,1.77,6.9,1.18,1.85,2.77,3.38,4.76,4.61,1.99,1.23,4.3,2.24,6.94,3.03,2.63.79,5.4,1.48,8.3,2.07,2.76.54,4.64,1.06,5.65,1.55,1.01.49,1.51,1.11,1.51,1.85v.15c0,.69-.34,1.23-1.03,1.62-.69.39-1.82.59-3.39.59-3.05,0-6.12-.47-9.22-1.4-3.1-.93-6.05-2.48-8.85-4.65l-9.22,10.99c3.29,2.9,7.22,5.08,11.77,6.53,4.55,1.45,9.46,2.18,14.72,2.18,3.44,0,6.58-.4,9.41-1.22h0ZM347.76,187.44h17.27v-51.65h-17.27v51.65h0ZM407.57,187.1c3.17-.91,5.88-2.35,8.12-4.32,2.24-1.97,3.97-4.5,5.2-7.6,1.23-3.1,1.84-6.86,1.84-11.29v-28.11h-17.56v28.63c0,3.15-.74,5.4-2.21,6.75-1.48,1.35-3.39,2.03-5.76,2.03s-4.22-.72-5.72-2.18c-1.5-1.45-2.25-3.78-2.25-6.97v-28.26h-17.56v28.48c0,4.28.6,7.95,1.81,11,1.21,3.05,2.92,5.56,5.13,7.53,2.21,1.97,4.88,3.41,8.01,4.32,3.12.91,6.6,1.37,10.44,1.37s7.34-.45,10.51-1.37h0ZM429.23,187.44h16.82v-25.6l11.92,18.37h.29l11.92-18.37v25.6h17.19v-51.65h-18l-11.07,18.15-11.07-18.15h-18v51.65h0Z"/>
  <path class="st0" d="M11.82,73.07v47.81h5.4v-47.81h11.82v-5.19H0v5.19h11.82ZM36.72,120.89h30.16v-5.19h-24.86v-20.83h24.86v-5.19h-24.86v-16.61h25.08v-5.19h-30.37v53h0ZM76.24,120.89h5.41v-24.69l23.23,24.69h7.05l-27.44-29.22,25.46-23.78h-7.12l-21.19,19.89v-19.89h-5.41v53h0ZM125.35,120.89v-40.13l34.99,40.13h1.19v-53h-5.23v40.63l-35.27-40.63h-1.15v53h5.48ZM173.67,120.89h5.3v-53h-5.3v53h0ZM192.87,119.64c2.62,1.72,5.54,2.58,8.76,2.58,4.18,0,7.73-1.42,10.65-4.25,2.92-2.83,4.38-6.17,4.38-10.02,0-2.67-.85-5.32-2.56-7.96-1.71-2.64-4.85-5.66-9.44-9.04-3.87-2.86-6.15-4.62-6.85-5.3-1.27-1.27-2.15-2.45-2.63-3.53-.48-1.08-.72-2.2-.72-3.35,0-1.9.68-3.5,2.04-4.79,1.36-1.3,3.1-1.95,5.24-1.95,1.66,0,3.19.42,4.59,1.26,1.4.84,3.1,2.58,5.1,5.22l4.32-3.28c-2.43-3.31-4.73-5.59-6.9-6.83-2.17-1.24-4.51-1.85-7.01-1.85-2.35,0-4.53.55-6.54,1.64-2,1.09-3.56,2.59-4.67,4.49-1.1,1.9-1.66,4-1.66,6.31,0,2.91.94,5.61,2.81,8.11,1.08,1.49,3.83,3.9,8.25,7.24,4.4,3.32,7.42,6.15,9.08,8.5,1.2,1.71,1.8,3.45,1.8,5.22,0,1.56-.41,3.04-1.23,4.43-.82,1.39-2.01,2.5-3.57,3.33-1.56.83-3.23,1.24-5.01,1.24-4.16,0-7.82-2.92-10.99-8.76l-4.5,2.7c2.21,4.04,4.62,6.91,7.24,8.63h0ZM227.86,120.89h5.41v-24.69l23.23,24.69h7.06l-27.44-29.22,25.46-23.78h-7.12l-21.19,19.89v-19.89h-5.41v53h0ZM271.49,120.89h30.16v-5.19h-24.86v-20.83h24.86v-5.19h-24.86v-16.61h25.08v-5.19h-30.37v53h0Z"/>
  <path class="st0" d="M25.62,1.33L.58,54.34h5.91l8.26-17.44h22.83l8.34,17.44h5.72L26.92,1.33h-1.3ZM35.28,31.78h-18.12l9.08-19.19,9.04,19.19h0ZM80.21,1.33l-25.04,53h5.91l8.26-17.44h22.83l8.34,17.44h5.72L81.5,1.33h-1.3ZM89.87,31.78h-18.12l9.08-19.19,9.04,19.19h0ZM114.43,54.34h25.69v-5.12h-20.39V1.33h-5.3v53h0ZM148.66,54.34h14.56c5.24,0,9.41-1.47,12.52-4.41,3.11-2.94,4.67-6.54,4.67-10.79,0-2.09-.41-4.03-1.24-5.82-.83-1.79-1.98-3.31-3.47-4.58-1.48-1.26-3.6-2.36-6.36-3.3,2.22-1.2,3.91-2.77,5.06-4.7,1.15-1.93,1.72-4.08,1.72-6.43,0-2.52-.65-4.82-1.96-6.88-1.31-2.07-3.09-3.6-5.35-4.59-2.26-1-5.49-1.5-9.69-1.5h-10.45v53h0ZM159.99,6.52c3.71,0,6.41.69,8.11,2.07,1.7,1.38,2.55,3.28,2.55,5.71,0,1.8-.51,3.44-1.52,4.92-1.01,1.48-2.38,2.56-4.12,3.24-1.73.68-4.44,1.03-8.12,1.03h-3.03V6.52h6.14ZM156.85,28.83c4.48,0,7.62.22,9.42.65,2.69.65,4.81,1.85,6.35,3.6,1.54,1.75,2.31,3.81,2.31,6.16,0,1.87-.55,3.61-1.64,5.22-1.1,1.61-2.55,2.79-4.35,3.55-1.81.76-4.64,1.13-8.52,1.13h-6.57v-20.32h3ZM202.32,3.69c-4.25,2.46-7.61,5.87-10.08,10.22-2.46,4.35-3.69,9.07-3.69,14.16,0,7.64,2.7,14.15,8.11,19.53,5.41,5.38,12.04,8.07,19.9,8.07s14.34-2.7,19.74-8.11c5.4-5.4,8.1-11.99,8.1-19.75s-2.7-14.42-8.11-19.78c-5.41-5.36-12.13-8.04-20.15-8.04-4.95,0-9.56,1.23-13.81,3.69h0ZM227.7,8.22c3.56,2.04,6.32,4.77,8.28,8.17,1.96,3.4,2.94,7.21,2.94,11.41s-.98,8.08-2.94,11.54c-1.96,3.46-4.69,6.19-8.19,8.18-3.5,2-7.31,2.99-11.42,2.99-6.16,0-11.42-2.17-15.79-6.51-4.37-4.34-6.55-9.66-6.55-15.96,0-4.26.99-8.11,2.96-11.58,1.97-3.46,4.72-6.21,8.23-8.26,3.51-2.04,7.23-3.07,11.15-3.07s7.77,1.02,11.33,3.07h0ZM255.32,54.34h5.3v-24.61h2.99l19.06,24.61h6.55l-19.06-24.61c4.44-.02,7.93-.59,10.45-1.71,2.52-1.12,4.46-2.77,5.82-4.96,1.36-2.19,2.04-4.73,2.04-7.61,0-3.46-.99-6.38-2.95-8.75-1.97-2.37-4.53-3.91-7.68-4.64-2.09-.48-6.08-.72-11.96-.72h-10.56v53h0ZM269.96,6.52c3.63,0,6.23.31,7.79.94,1.56.62,2.83,1.66,3.79,3.12.96,1.45,1.44,3.07,1.44,4.85s-.47,3.48-1.43,4.96c-.95,1.48-2.27,2.55-3.97,3.23-1.7.67-4.31,1.01-7.85,1.01l-9.13-.07V6.52h9.35Z"/>
  <path class="st0" d="M333.44,4.32c-9.13-5.59-21.07-5.6-30.4.93-12.54,8.78-15.59,26.07-6.81,38.62,8.78,12.54,26.07,15.59,38.62,6.81,9.27-6.49,13.35-17.63,11.3-28.06l-4.79.94c1.69,8.6-1.66,17.78-9.31,23.13-10.34,7.24-24.59,4.73-31.84-5.61-7.24-10.34-4.73-24.6,5.61-31.84,7.69-5.38,17.53-5.37,25.05-.76l2.55-4.15h0Z"/>
  <polygon class="st0" points="318.78 25.06 321.62 29.12 342.64 14.4 339.79 10.34 318.78 25.06 318.78 25.06"/>
</svg>